<svg width="190" height="90" viewBox="0 0 190 90" fill="none" xmlns="http://www.w3.org/2000/svg">
<path d="M135 49C137.761 49 140 46.7614 140 44C140 41.2386 137.761 39 135 39L135 49ZM43.4645 40.4645C41.5118 42.4171 41.5118 45.5829 43.4645 47.5355L75.2843 79.3553C77.2369 81.308 80.4027 81.308 82.3553 79.3553C84.308 77.4027 84.308 74.2369 82.3553 72.2843L54.0711 44L82.3553 15.7157C84.308 13.7631 84.308 10.5973 82.3553 8.64466C80.4027 6.69204 77.2369 6.69204 75.2843 8.64466L43.4645 40.4645ZM135 39L47 39L47 49L135 49L135 39Z" fill="black"/>
</svg>
