<svg width="127" height="102" viewBox="0 0 127 102" fill="none" xmlns="http://www.w3.org/2000/svg">
<path d="M29.5 4C29.5 2.067 27.933 0.5 26 0.5C24.067 0.5 22.5 2.067 22.5 4H29.5ZM23.5251 100.475C24.892 101.842 27.108 101.842 28.4749 100.475L50.7487 78.201C52.1156 76.8342 52.1156 74.6181 50.7487 73.2513C49.3819 71.8844 47.1658 71.8844 45.799 73.2513L26 93.0503L6.20101 73.2513C4.83418 71.8844 2.6181 71.8844 1.25126 73.2513C-0.115572 74.6181 -0.115572 76.8342 1.25126 78.201L23.5251 100.475ZM22.5 4L22.5 98H29.5L29.5 4H22.5Z" fill="black"/>
<line x1="46" y1="6" x2="123.006" y2="6" stroke="black" stroke-width="6" stroke-linecap="round"/>
<line x1="46" y1="29" x2="103" y2="29" stroke="black" stroke-width="6" stroke-linecap="round"/>
<line x1="46" y1="54" x2="82" y2="54" stroke="black" stroke-width="6" stroke-linecap="round"/>
</svg>
